Coordinates
version=1
nRows=34
nColumns=38
inDegrees=no

Units are S.I. units (second, meters, Newtons, ...)
If the header above contains a line with 'inDegrees', this indicates whether rotational values are in degrees (yes) or radians (no).

endheader
time	pelvis_tilt	pelvis_list	pelvis_rotation	pelvis_tx	pelvis_ty	pelvis_tz	hip_flexion_r	hip_adduction_r	hip_rotation_r	knee_angle_r	ankle_angle_r	subtalar_angle_r	mtp_angle_r	hip_flexion_l	hip_adduction_l	hip_rotation_l	knee_angle_l	ankle_angle_l	subtalar_angle_l	mtp_angle_l	lumbar_extension	lumbar_bending	lumbar_rotation	arm_flex_r	arm_add_r	arm_rot_r	elbow_flex_r	pro_sup_r	wrist_flex_r	wrist_dev_r	arm_flex_l	arm_add_l	arm_rot_l	elbow_flex_l	pro_sup_l	wrist_flex_l	wrist_dev_l
1.29	3.13211	1.2517	-1.43022	0.708448	0.896938	1.08686	0.0375228	0.0701363	-0.153411	0.644827	-0.151934	0	0	-0.152731	-0.200988	-0.156914	1.32694	-0.221209	0	0	-0.390573	0.127835	-0.0484099	0.535679	-0.403867	0.557805	1.20704	0.769886	0	0	0.190617	-0.512764	-0.0479142	1.20909	0.734276	0	0
1.3	3.1347	1.2489	-1.43437	0.707462	0.908683	1.09032	0.0150249	0.069572	-0.154398	0.632432	-0.151847	0	0	-0.129851	-0.19861	-0.151919	1.33674	-0.202719	0	0	-0.395484	0.125034	-0.0453009	0.537027	-0.403472	0.55758	1.20421	0.770893	0	0	0.192171	-0.511386	-0.0479552	1.20885	0.735163	0	0
1.31	3.1374	1.24723	-1.43876	0.706375	0.920431	1.09369	-0.00732353	0.0681147	-0.156587	0.618542	-0.151725	0	0	-0.10672	-0.19609	-0.14816	1.3418	-0.189031	0	0	-0.399094	0.121949	-0.0421052	0.537487	-0.403212	0.556811	1.20172	0.772853	0	0	0.193613	-0.509807	-0.0479535	1.20829	0.736702	0	0
1.32	3.14047	1.24687	-1.44418	0.70534	0.932202	1.09691	-0.0288396	0.0658565	-0.159971	0.603556	-0.152203	0	0	-0.0834296	-0.193384	-0.1468	1.34163	-0.176901	0	0	-0.401307	0.11811	-0.038409	0.536696	-0.402351	0.554018	1.1994	0.774353	0	0	0.194811	-0.508156	-0.0480707	1.20769	0.738216	0	0
1.33	-3.13931	1.24786	-1.45094	0.704441	0.944036	1.09993	-0.0489556	0.0631516	-0.164251	0.588171	-0.153822	0	0	-0.0601779	-0.190792	-0.148498	1.33598	-0.161993	0	0	-0.402679	0.113283	-0.0322107	0.531441	-0.401136	0.544159	1.20001	0.782757	0	0	0.197648	-0.506588	-0.0458161	1.20671	0.740868	0	0
1.34	-3.13441	1.24919	-1.45884	0.703492	0.955706	1.10276	-0.0676595	0.0594017	-0.171487	0.57444	-0.15471	0	0	-0.0371177	-0.187823	-0.15093	1.32539	-0.159364	0	0	-0.403049	0.108046	-0.0288132	0.531275	-0.400391	0.544087	1.19757	0.783311	0	0	0.198148	-0.505883	-0.0461343	1.20631	0.742318	0	0
1.35	-3.12869	1.25067	-1.46728	0.702447	0.967255	1.10542	-0.0855405	0.0552925	-0.180605	0.561112	-0.15662	0	0	-0.0154041	-0.184668	-0.153318	1.31093	-0.155652	0	0	-0.403693	0.102631	-0.0252036	0.53008	-0.400123	0.54235	1.19696	0.784909	0	0	0.199477	-0.50531	-0.0457747	1.20593	0.743815	0	0
1.36	-3.12334	1.25267	-1.47573	0.701465	0.978748	1.10778	-0.101914	0.0515007	-0.189475	0.548623	-0.158786	0	0	0.00586436	-0.182322	-0.158048	1.29289	-0.153579	0	0	-0.403769	0.0970906	-0.0211732	0.528327	-0.399776	0.53951	1.197	0.786054	0	0	0.200948	-0.505106	-0.0450401	1.20561	0.745296	0	0
1.37	-3.11902	1.25514	-1.48342	0.700536	0.990224	1.10982	-0.117028	0.0483734	-0.197339	0.537243	-0.160932	0	0	0.0266056	-0.18243	-0.166932	1.27249	-0.153562	0	0	-0.40313	0.0917356	-0.0168131	0.526012	-0.399575	0.536453	1.19791	0.787649	0	0	0.202532	-0.505215	-0.0440215	1.20515	0.747166	0	0
1.38	-3.11802	1.25709	-1.48875	0.699611	1.00177	1.11148	-0.132596	0.0467498	-0.202717	0.52525	-0.163391	0	0	0.0462897	-0.191347	-0.190729	1.25282	-0.160734	0	0	-0.402144	0.0877243	-0.0118453	0.523736	-0.399592	0.534125	1.1992	0.790518	0	0	0.203419	-0.504964	-0.0435727	1.20443	0.749031	0	0
1.39	-3.13114	1.25256	-1.48542	0.699072	1.01421	1.11297	-0.156367	0.0502226	-0.20323	0.510813	-0.166294	0	0	0.0530349	-0.246967	-0.296194	1.24169	-0.215861	0	0	-0.405509	0.0887753	-0.000411933	0.520305	-0.403737	0.532967	1.2055	0.789349	0	0	0.202507	-0.504127	-0.0418964	1.20468	0.74886	0	0
1.4	-3.12362	1.25498	-1.49634	0.698012	1.02532	1.11419	-0.16905	0.0461129	-0.206342	0.503643	-0.164726	0	0	0.068548	-0.242646	-0.303505	1.21212	-0.209561	0	0	-0.405331	0.082847	0.00366997	0.518381	-0.403933	0.530123	1.20817	0.788039	0	0	0.204901	-0.504838	-0.0403527	1.20437	0.747915	0	0
1.41	-3.11559	1.25737	-1.50781	0.696854	1.03641	1.1151	-0.181129	0.0419321	-0.208522	0.497665	-0.164071	0	0	0.0824653	-0.238239	-0.312202	1.17971	-0.209864	0	0	-0.40418	0.0771156	0.00463373	0.520112	-0.401669	0.532266	1.20646	0.787978	0	0	0.203385	-0.505266	-0.0443666	1.20524	0.749726	0	0
1.42	-3.10809	1.25993	-1.51877	0.695648	1.04748	1.11566	-0.192518	0.0382244	-0.209356	0.492429	-0.161868	0	0	0.0950546	-0.233884	-0.321217	1.14439	-0.20689	0	0	-0.403209	0.0716755	0.00636109	0.521072	-0.400668	0.533199	1.20672	0.788597	0	0	0.202483	-0.506224	-0.0468994	1.20657	0.750696	0	0
1.43	-3.10122	1.26258	-1.52925	0.69436	1.0585	1.11587	-0.202942	0.0346703	-0.209178	0.488728	-0.158219	0	0	0.106701	-0.229551	-0.3302	1.10626	-0.204179	0	0	-0.402348	0.0667344	0.00846109	0.521912	-0.400267	0.533836	1.2081	0.789019	0	0	0.201682	-0.507288	-0.0491023	1.20837	0.751915	0	0
1.44	-3.09487	1.26491	-1.53955	0.693014	1.06943	1.11579	-0.212742	0.0309915	-0.207353	0.486909	-0.147876	0	0	0.116347	-0.22474	-0.337894	1.06535	-0.196847	0	0	-0.40214	0.0621737	0.0115021	0.522566	-0.401191	0.534385	1.21122	0.785962	0	0	0.201564	-0.508124	-0.0505916	1.2105	0.753297	0	0
1.45	-3.08988	1.2666	-1.54872	0.691649	1.08032	1.11552	-0.222827	0.0277515	-0.204425	0.485525	-0.141757	0	0	0.123527	-0.220441	-0.345293	1.02282	-0.192739	0	0	-0.402488	0.0582914	0.0147717	0.523329	-0.401878	0.53465	1.21424	0.784501	0	0	0.201575	-0.509272	-0.0513289	1.21264	0.752678	0	0
1.46	-3.0865	1.26816	-1.55605	0.690079	1.09118	1.11501	-0.23278	0.0248186	-0.200917	0.484851	-0.135937	0	0	0.129328	-0.215774	-0.350771	0.977797	-0.187652	0	0	-0.403029	0.0555007	0.0182886	0.523737	-0.403186	0.534134	1.21807	0.783227	0	0	0.20202	-0.509875	-0.0516887	1.21451	0.751578	0	0
1.47	-3.08582	1.27014	-1.56053	0.688374	1.10208	1.11423	-0.242012	0.0225996	-0.197043	0.484703	-0.131064	0	0	0.134706	-0.211676	-0.355211	0.931464	-0.181635	0	0	-0.403243	0.0539422	0.0223915	0.523615	-0.405572	0.532874	1.22283	0.78311	0	0	0.202825	-0.510234	-0.0510284	1.21636	0.749838	0	0
1.48	-3.0867	1.27235	-1.56317	0.686577	1.11297	1.11322	-0.25087	0.0209337	-0.192616	0.484557	-0.126446	0	0	0.139157	-0.207012	-0.356698	0.882719	-0.179221	0	0	-0.401903	0.0530314	0.0224883	0.496488	-0.413498	0.518587	1.25433	0.803413	0	0	0.19874	-0.510038	-0.0574584	1.21958	0.751522	0	0
1.49	-3.08934	1.27532	-1.56417	0.684738	1.12392	1.11192	-0.258444	0.0197193	-0.187576	0.485369	-0.119516	0	0	0.143044	-0.20218	-0.356211	0.832688	-0.169039	0	0	-0.402028	0.0528198	0.0290413	0.523375	-0.407498	0.5294	1.22975	0.792995	0	0	0.201768	-0.509214	-0.0546589	1.22104	0.752555	0	0
1.5	-3.09322	1.27859	-1.5637	0.682703	1.13487	1.11038	-0.265284	0.0183778	-0.183021	0.486959	-0.112104	0	0	0.146054	-0.197054	-0.354341	0.781428	-0.155683	0	0	-0.399793	0.0532743	0.030111	0.495746	-0.417856	0.515826	1.26379	0.811355	0	0	0.198272	-0.508545	-0.0596399	1.22439	0.753096	0	0
1.51	-3.09825	1.28258	-1.56142	0.6805	1.14591	1.10858	-0.271719	0.0174336	-0.179162	0.488731	-0.102015	0	0	0.148786	-0.191571	-0.350075	0.729266	-0.13149	0	0	-0.39807	0.0544551	0.0349754	0.52589	-0.413681	0.533212	1.23757	0.780562	0	0	0.199732	-0.507116	-0.058386	1.22612	0.753395	0	0
1.52	-3.10531	1.28718	-1.55649	0.678177	1.15705	1.10661	-0.278032	0.0170804	-0.175481	0.488766	-0.0977609	0	0	0.152065	-0.187605	-0.348435	0.679494	-0.121463	0	0	-0.395063	0.0560884	0.0381701	0.523486	-0.414946	0.528279	1.24205	0.785054	0	0	0.199247	-0.506095	-0.0586256	1.22887	0.753436	0	0
1.53	-3.11379	1.29253	-1.54978	0.675716	1.16831	1.10438	-0.282501	0.0164942	-0.174221	0.491794	-0.0911336	0	0	0.154796	-0.184108	-0.344802	0.630933	-0.100774	0	0	-0.390899	0.0582559	0.0411407	0.522445	-0.418266	0.527252	1.24661	0.78206	0	0	0.198524	-0.504867	-0.0588604	1.23147	0.754497	0	0
1.54	-3.12044	1.29898	-1.54386	0.673009	1.1796	1.10196	-0.285297	0.0149559	-0.175488	0.496608	-0.0793356	0	0	0.155247	-0.176235	-0.328861	0.573516	-0.0682297	0	0	-0.387301	0.0597103	0.0476946	0.513861	-0.423754	0.514403	1.2582	0.783072	0	0	0.20321	-0.505635	-0.0495787	1.2332	0.753308	0	0
1.55	-3.10099	1.30758	-1.56006	0.670014	1.18999	1.10024	-0.284771	0.00677434	-0.179595	0.501552	-0.0753113	0	0	0.116342	-0.125067	-0.191285	0.394977	-0.0497262	0	0	-0.382336	0.0531952	0.0439482	0.513452	-0.421042	0.509783	1.25625	0.791761	0	0	0.205701	-0.502677	-0.0541932	1.23395	0.756928	0	0
1.56	-3.10406	1.3147	-1.55627	0.666951	1.20145	1.0977	-0.287628	0.00477349	-0.182137	0.50402	-0.0696504	0	0	0.100046	-0.111733	-0.14105	0.296119	-0.0470598	0	0	-0.376736	0.0537992	0.0466944	0.507551	-0.424196	0.501667	1.26261	0.796893	0	0	0.208253	-0.500912	-0.0511447	1.23496	0.757989	0	0
1.57	-3.11186	1.31675	-1.5489	0.663995	1.21284	1.09525	-0.295104	0.00367021	-0.184883	0.508344	-0.0639667	0	0	0.0715453	-0.101956	-0.0858333	0.184124	-0.058825	0	0	-0.370802	0.0601515	0.0384577	0.525152	-0.37205	0.481741	1.19774	0.84955	0	0	0.198634	-0.501993	-0.0596589	1.23276	0.757547	0	0
1.58	-3.12208	1.32885	-1.54044	0.661583	1.22538	1.09198	-0.291985	0.00361749	-0.183657	0.513497	-0.0577698	0	0	0.0607371	-0.100116	-0.0519158	0.0960346	-0.0814217	0	0	-0.360244	0.0567175	0.0518751	0.49987	-0.427445	0.49557	1.2678	0.799181	0	0	0.207617	-0.499926	-0.047242	1.23551	0.759612	0	0
1.59	-3.13359	1.33696	-1.52984	0.658744	1.23771	1.08885	-0.291895	0.00270052	-0.185534	0.521488	-0.0519813	0	0	0.0459079	-0.0998094	-0.0184475	0.0129403	-0.100305	0	0	-0.357085	0.056573	0.0676024	0.4829	-0.444248	0.478026	1.29245	0.790476	0	0	0.220468	-0.498349	-0.0299898	1.23761	0.764167	0	0
1.6	3.13349	1.3282	-1.51404	0.655267	1.24893	1.08673	-0.310617	0.00298419	-0.189698	0.525966	-0.049533	0	0	0.0263819	-0.100926	-0.0153896	0	-0.0968079	0	0	-0.336396	0.0729157	0.00822922	0.565137	-0.349923	0.547399	1.14396	0.812539	0	0	0.159032	-0.505105	-0.0952525	1.23226	0.751628	0	0
1.61	3.12919	1.34034	-1.50951	0.652174	1.26176	1.08335	-0.304643	-0.000845862	-0.193678	0.539424	-0.0344665	0	0	0.0370918	-0.10111	-0.0198698	0	-0.0790984	0	0	-0.34057	0.0680542	0.0497601	0.50819	-0.382274	0.469997	1.22556	0.746144	0	0	0.202165	-0.501668	-0.0424512	1.23233	0.747475	0	0
1.62	3.12215	1.34853	-1.50505	0.649451	1.27483	1.08051	-0.30437	-0.0038754	-0.193125	0.546926	-0.0428625	0	0	0.0406476	-0.102514	-0.0260206	0	-0.0915346	0	0	-0.342347	0.0604959	0.0787717	0.467722	-0.46716	0.478658	1.31659	0.776975	0	0	0.227284	-0.497923	-0.015038	1.23735	0.762078	0	0
